<svg width="30" height="30" viewBox="0 0 30 30" fill="none" xmlns="http://www.w3.org/2000/svg">
<path d="M29.5539 6.17125C28.5101 6.63375 27.3889 6.94625 26.2101 7.0875C27.4264 6.35974 28.3363 5.21433 28.7701 3.865C27.6274 4.54374 26.3768 5.02149 25.0726 5.2775C24.1956 4.34108 23.034 3.72041 21.768 3.51184C20.5021 3.30328 19.2028 3.51849 18.0717 4.12407C16.9406 4.72964 16.0411 5.6917 15.5128 6.86088C14.9846 8.03006 14.8571 9.34094 15.1501 10.59C12.8347 10.4737 10.5697 9.87194 8.50192 8.82363C6.43416 7.77533 4.60994 6.30395 3.14764 4.505C2.64764 5.3675 2.36014 6.3675 2.36014 7.4325C2.35958 8.39124 2.59568 9.3353 3.04748 10.1809C3.49929 11.0265 4.15284 11.7475 4.95014 12.28C4.02548 12.2506 3.12123 12.0007 2.31264 11.5513V11.6263C2.31254 12.9709 2.77768 14.2742 3.62912 15.315C4.48055 16.3558 5.66585 17.0699 6.98389 17.3363C6.12612 17.5684 5.22681 17.6026 4.35389 17.4363C4.72576 18.5933 5.45013 19.605 6.4256 20.3299C7.40106 21.0548 8.57878 21.4565 9.79389 21.4788C7.73118 23.098 5.18375 23.9764 2.56139 23.9725C2.09686 23.9726 1.63273 23.9455 1.17139 23.8913C3.83323 25.6027 6.93181 26.511 10.0964 26.5075C20.8089 26.5075 26.6651 17.635 26.6651 9.94C26.6651 9.69 26.6589 9.4375 26.6476 9.1875C27.7867 8.36372 28.77 7.34362 29.5514 6.175L29.5539 6.17125Z" fill="black"/>
</svg>
